<svg width="32" height="32" viewBox="0 0 32 32" fill="none" xmlns="http://www.w3.org/2000/svg">
<path d="M32 22.7153V9.30063C32 3.47373 28.528 0 22.704 0H9.312C3.472 0 0 3.47373 0 9.30063V22.6993C0 28.5262 3.472 31.9999 9.296 31.9999H22.704C28.528 32.016 32 28.5422 32 22.7153ZM12.8 22.5072C12.56 22.2671 12.448 21.9629 12.448 21.6588C12.448 21.3546 12.576 21.0505 12.8 20.8104L17.6 16.008L12.8 11.2056C12.336 10.7414 12.336 9.97297 12.8 9.50874C13.264 9.04451 14.032 9.04451 14.496 9.50874L20.144 15.1596C20.608 15.6238 20.608 16.3922 20.144 16.8564L14.496 22.5072C14.032 22.9714 13.28 22.9714 12.8 22.5072Z" fill="#00897B"/>
</svg>
