<svg width="106" height="101" viewBox="0 0 106 101" fill="none" xmlns="http://www.w3.org/2000/svg">
<path d="M18.7669 19.7835L42.2669 8.03355C49.0235 4.65523 56.9765 4.65523 63.7331 8.03356L87.2331 19.7836C95.3639 23.849 100.5 32.1593 100.5 41.2498V59.0842C100.5 68.1747 95.3639 76.485 87.2331 80.5504L63.7331 92.3004C56.9765 95.6788 49.0235 95.6787 42.2669 92.3004L18.7669 80.5504C10.6361 76.485 5.5 68.1747 5.5 59.0842V41.2498C5.5 32.1593 10.6361 23.849 18.7669 19.7835Z" stroke="#00897B" stroke-width="11"/>
<path d="M48.2142 74.2823C46.7129 74.2823 45.293 73.6128 44.3802 72.4644L32.0524 56.9449C30.4489 54.9264 30.8664 52.0523 32.9838 50.5231C35.1047 48.9934 38.1176 49.3939 39.7218 51.411L47.83 61.6171L68.2226 30.4043C69.6266 28.257 72.5913 27.5999 74.8488 28.9364C77.1035 30.2741 77.792 33.1022 76.3873 35.2515L52.2973 72.1218C51.4604 73.4036 50.0157 74.2099 48.4336 74.2783C48.3598 74.281 48.2874 74.2823 48.2142 74.2823Z" fill="#00897B"/>
</svg>
