<svg width="18" height="12" viewBox="0 0 18 12" fill="none" xmlns="http://www.w3.org/2000/svg">
<path d="M1.45825 6.9375V6.942C1.43299 7.03727 1.38919 7.12663 1.32937 7.20496C1.26955 7.2833 1.19488 7.34907 1.10962 7.39853C1.02436 7.44798 0.930195 7.48015 0.832497 7.49318C0.7348 7.50622 0.635491 7.49987 0.540249 7.4745C-0.106251 7.3035 0.00774916 6.558 0.00774916 6.558L0.0347493 6.465C0.0347493 6.465 0.0737492 6.339 0.105249 6.2475C0.490181 5.16823 1.05685 4.16274 1.78075 3.2745C3.12625 1.6335 5.38975 0 8.98225 0C12.5747 0 14.8382 1.6335 16.1852 3.2745C16.9091 4.16274 17.4758 5.16823 17.8607 6.2475C17.893 6.34025 17.923 6.43378 17.9507 6.528L17.9552 6.5475V6.5535L17.9567 6.5565C18.0043 6.7474 17.975 6.94935 17.8751 7.11882C17.7751 7.28829 17.6126 7.41171 17.4225 7.46248C17.2325 7.51324 17.03 7.48729 16.8589 7.39021C16.6878 7.29313 16.5617 7.1327 16.5077 6.9435L16.5062 6.9375L16.4942 6.9L16.4417 6.7365C16.1148 5.82529 15.6355 4.97621 15.0242 4.2255C13.9112 2.868 12.0497 1.5 8.98225 1.5C5.91475 1.5 4.05475 2.868 2.94025 4.2255C2.329 4.97621 1.84969 5.82529 1.52275 6.7365L1.47025 6.9L1.45825 6.9375ZM8.98225 4.5C7.98769 4.5 7.03386 4.89509 6.3306 5.59835C5.62734 6.30161 5.23225 7.25544 5.23225 8.25C5.23225 9.24456 5.62734 10.1984 6.3306 10.9017C7.03386 11.6049 7.98769 12 8.98225 12C9.97681 12 10.9306 11.6049 11.6339 10.9017C12.3372 10.1984 12.7322 9.24456 12.7322 8.25C12.7322 7.25544 12.3372 6.30161 11.6339 5.59835C10.9306 4.89509 9.97681 4.5 8.98225 4.5ZM6.73225 8.25C6.73225 7.65326 6.9693 7.08097 7.39126 6.65901C7.81322 6.23705 8.38551 6 8.98225 6C9.57899 6 10.1513 6.23705 10.5732 6.65901C10.9952 7.08097 11.2322 7.65326 11.2322 8.25C11.2322 8.84674 10.9952 9.41903 10.5732 9.84099C10.1513 10.2629 9.57899 10.5 8.98225 10.5C8.38551 10.5 7.81322 10.2629 7.39126 9.84099C6.9693 9.41903 6.73225 8.84674 6.73225 8.25Z" fill="#2D2D2D"/>
<path d="M1.45825 6.9375V6.942C1.43299 7.03727 1.38919 7.12663 1.32937 7.20496C1.26955 7.2833 1.19488 7.34907 1.10962 7.39853C1.02436 7.44798 0.930195 7.48015 0.832497 7.49318C0.7348 7.50622 0.635491 7.49987 0.540249 7.4745C-0.106251 7.3035 0.00774916 6.558 0.00774916 6.558L0.0347493 6.465C0.0347493 6.465 0.0737492 6.339 0.105249 6.2475C0.490181 5.16823 1.05685 4.16274 1.78075 3.2745C3.12625 1.6335 5.38975 0 8.98225 0C12.5747 0 14.8382 1.6335 16.1852 3.2745C16.9091 4.16274 17.4758 5.16823 17.8607 6.2475C17.893 6.34025 17.923 6.43378 17.9507 6.528L17.9552 6.5475V6.5535L17.9567 6.5565C18.0043 6.7474 17.975 6.94935 17.8751 7.11882C17.7751 7.28829 17.6126 7.41171 17.4225 7.46248C17.2325 7.51324 17.03 7.48729 16.8589 7.39021C16.6878 7.29313 16.5617 7.1327 16.5077 6.9435L16.5062 6.9375L16.4942 6.9L16.4417 6.7365C16.1148 5.82529 15.6355 4.97621 15.0242 4.2255C13.9112 2.868 12.0497 1.5 8.98225 1.5C5.91475 1.5 4.05475 2.868 2.94025 4.2255C2.329 4.97621 1.84969 5.82529 1.52275 6.7365L1.47025 6.9L1.45825 6.9375ZM8.98225 4.5C7.98769 4.5 7.03386 4.89509 6.3306 5.59835C5.62734 6.30161 5.23225 7.25544 5.23225 8.25C5.23225 9.24456 5.62734 10.1984 6.3306 10.9017C7.03386 11.6049 7.98769 12 8.98225 12C9.97681 12 10.9306 11.6049 11.6339 10.9017C12.3372 10.1984 12.7322 9.24456 12.7322 8.25C12.7322 7.25544 12.3372 6.30161 11.6339 5.59835C10.9306 4.89509 9.97681 4.5 8.98225 4.5ZM6.73225 8.25C6.73225 7.65326 6.9693 7.08097 7.39126 6.65901C7.81322 6.23705 8.38551 6 8.98225 6C9.57899 6 10.1513 6.23705 10.5732 6.65901C10.9952 7.08097 11.2322 7.65326 11.2322 8.25C11.2322 8.84674 10.9952 9.41903 10.5732 9.84099C10.1513 10.2629 9.57899 10.5 8.98225 10.5C8.38551 10.5 7.81322 10.2629 7.39126 9.84099C6.9693 9.41903 6.73225 8.84674 6.73225 8.25Z" fill="black" fill-opacity="0.2"/>
<path d="M1.45825 6.9375V6.942C1.43299 7.03727 1.38919 7.12663 1.32937 7.20496C1.26955 7.2833 1.19488 7.34907 1.10962 7.39853C1.02436 7.44798 0.930195 7.48015 0.832497 7.49318C0.7348 7.50622 0.635491 7.49987 0.540249 7.4745C-0.106251 7.3035 0.00774916 6.558 0.00774916 6.558L0.0347493 6.465C0.0347493 6.465 0.0737492 6.339 0.105249 6.2475C0.490181 5.16823 1.05685 4.16274 1.78075 3.2745C3.12625 1.6335 5.38975 0 8.98225 0C12.5747 0 14.8382 1.6335 16.1852 3.2745C16.9091 4.16274 17.4758 5.16823 17.8607 6.2475C17.893 6.34025 17.923 6.43378 17.9507 6.528L17.9552 6.5475V6.5535L17.9567 6.5565C18.0043 6.7474 17.975 6.94935 17.8751 7.11882C17.7751 7.28829 17.6126 7.41171 17.4225 7.46248C17.2325 7.51324 17.03 7.48729 16.8589 7.39021C16.6878 7.29313 16.5617 7.1327 16.5077 6.9435L16.5062 6.9375L16.4942 6.9L16.4417 6.7365C16.1148 5.82529 15.6355 4.97621 15.0242 4.2255C13.9112 2.868 12.0497 1.5 8.98225 1.5C5.91475 1.5 4.05475 2.868 2.94025 4.2255C2.329 4.97621 1.84969 5.82529 1.52275 6.7365L1.47025 6.9L1.45825 6.9375ZM8.98225 4.5C7.98769 4.5 7.03386 4.89509 6.3306 5.59835C5.62734 6.30161 5.23225 7.25544 5.23225 8.25C5.23225 9.24456 5.62734 10.1984 6.3306 10.9017C7.03386 11.6049 7.98769 12 8.98225 12C9.97681 12 10.9306 11.6049 11.6339 10.9017C12.3372 10.1984 12.7322 9.24456 12.7322 8.25C12.7322 7.25544 12.3372 6.30161 11.6339 5.59835C10.9306 4.89509 9.97681 4.5 8.98225 4.5ZM6.73225 8.25C6.73225 7.65326 6.9693 7.08097 7.39126 6.65901C7.81322 6.23705 8.38551 6 8.98225 6C9.57899 6 10.1513 6.23705 10.5732 6.65901C10.9952 7.08097 11.2322 7.65326 11.2322 8.25C11.2322 8.84674 10.9952 9.41903 10.5732 9.84099C10.1513 10.2629 9.57899 10.5 8.98225 10.5C8.38551 10.5 7.81322 10.2629 7.39126 9.84099C6.9693 9.41903 6.73225 8.84674 6.73225 8.25Z" fill="black" fill-opacity="0.2"/>
<path d="M1.45825 6.9375V6.942C1.43299 7.03727 1.38919 7.12663 1.32937 7.20496C1.26955 7.2833 1.19488 7.34907 1.10962 7.39853C1.02436 7.44798 0.930195 7.48015 0.832497 7.49318C0.7348 7.50622 0.635491 7.49987 0.540249 7.4745C-0.106251 7.3035 0.00774916 6.558 0.00774916 6.558L0.0347493 6.465C0.0347493 6.465 0.0737492 6.339 0.105249 6.2475C0.490181 5.16823 1.05685 4.16274 1.78075 3.2745C3.12625 1.6335 5.38975 0 8.98225 0C12.5747 0 14.8382 1.6335 16.1852 3.2745C16.9091 4.16274 17.4758 5.16823 17.8607 6.2475C17.893 6.34025 17.923 6.43378 17.9507 6.528L17.9552 6.5475V6.5535L17.9567 6.5565C18.0043 6.7474 17.975 6.94935 17.8751 7.11882C17.7751 7.28829 17.6126 7.41171 17.4225 7.46248C17.2325 7.51324 17.03 7.48729 16.8589 7.39021C16.6878 7.29313 16.5617 7.1327 16.5077 6.9435L16.5062 6.9375L16.4942 6.9L16.4417 6.7365C16.1148 5.82529 15.6355 4.97621 15.0242 4.2255C13.9112 2.868 12.0497 1.5 8.98225 1.5C5.91475 1.5 4.05475 2.868 2.94025 4.2255C2.329 4.97621 1.84969 5.82529 1.52275 6.7365L1.47025 6.9L1.45825 6.9375ZM8.98225 4.5C7.98769 4.5 7.03386 4.89509 6.3306 5.59835C5.62734 6.30161 5.23225 7.25544 5.23225 8.25C5.23225 9.24456 5.62734 10.1984 6.3306 10.9017C7.03386 11.6049 7.98769 12 8.98225 12C9.97681 12 10.9306 11.6049 11.6339 10.9017C12.3372 10.1984 12.7322 9.24456 12.7322 8.25C12.7322 7.25544 12.3372 6.30161 11.6339 5.59835C10.9306 4.89509 9.97681 4.5 8.98225 4.5ZM6.73225 8.25C6.73225 7.65326 6.9693 7.08097 7.39126 6.65901C7.81322 6.23705 8.38551 6 8.98225 6C9.57899 6 10.1513 6.23705 10.5732 6.65901C10.9952 7.08097 11.2322 7.65326 11.2322 8.25C11.2322 8.84674 10.9952 9.41903 10.5732 9.84099C10.1513 10.2629 9.57899 10.5 8.98225 10.5C8.38551 10.5 7.81322 10.2629 7.39126 9.84099C6.9693 9.41903 6.73225 8.84674 6.73225 8.25Z" fill="black" fill-opacity="0.2"/>
<path d="M1.45825 6.9375V6.942C1.43299 7.03727 1.38919 7.12663 1.32937 7.20496C1.26955 7.2833 1.19488 7.34907 1.10962 7.39853C1.02436 7.44798 0.930195 7.48015 0.832497 7.49318C0.7348 7.50622 0.635491 7.49987 0.540249 7.4745C-0.106251 7.3035 0.00774916 6.558 0.00774916 6.558L0.0347493 6.465C0.0347493 6.465 0.0737492 6.339 0.105249 6.2475C0.490181 5.16823 1.05685 4.16274 1.78075 3.2745C3.12625 1.6335 5.38975 0 8.98225 0C12.5747 0 14.8382 1.6335 16.1852 3.2745C16.9091 4.16274 17.4758 5.16823 17.8607 6.2475C17.893 6.34025 17.923 6.43378 17.9507 6.528L17.9552 6.5475V6.5535L17.9567 6.5565C18.0043 6.7474 17.975 6.94935 17.8751 7.11882C17.7751 7.28829 17.6126 7.41171 17.4225 7.46248C17.2325 7.51324 17.03 7.48729 16.8589 7.39021C16.6878 7.29313 16.5617 7.1327 16.5077 6.9435L16.5062 6.9375L16.4942 6.9L16.4417 6.7365C16.1148 5.82529 15.6355 4.97621 15.0242 4.2255C13.9112 2.868 12.0497 1.5 8.98225 1.5C5.91475 1.5 4.05475 2.868 2.94025 4.2255C2.329 4.97621 1.84969 5.82529 1.52275 6.7365L1.47025 6.9L1.45825 6.9375ZM8.98225 4.5C7.98769 4.5 7.03386 4.89509 6.3306 5.59835C5.62734 6.30161 5.23225 7.25544 5.23225 8.25C5.23225 9.24456 5.62734 10.1984 6.3306 10.9017C7.03386 11.6049 7.98769 12 8.98225 12C9.97681 12 10.9306 11.6049 11.6339 10.9017C12.3372 10.1984 12.7322 9.24456 12.7322 8.25C12.7322 7.25544 12.3372 6.30161 11.6339 5.59835C10.9306 4.89509 9.97681 4.5 8.98225 4.5ZM6.73225 8.25C6.73225 7.65326 6.9693 7.08097 7.39126 6.65901C7.81322 6.23705 8.38551 6 8.98225 6C9.57899 6 10.1513 6.23705 10.5732 6.65901C10.9952 7.08097 11.2322 7.65326 11.2322 8.25C11.2322 8.84674 10.9952 9.41903 10.5732 9.84099C10.1513 10.2629 9.57899 10.5 8.98225 10.5C8.38551 10.5 7.81322 10.2629 7.39126 9.84099C6.9693 9.41903 6.73225 8.84674 6.73225 8.25Z" fill="black" fill-opacity="0.2"/>
<path d="M1.45825 6.9375V6.942C1.43299 7.03727 1.38919 7.12663 1.32937 7.20496C1.26955 7.2833 1.19488 7.34907 1.10962 7.39853C1.02436 7.44798 0.930195 7.48015 0.832497 7.49318C0.7348 7.50622 0.635491 7.49987 0.540249 7.4745C-0.106251 7.3035 0.00774916 6.558 0.00774916 6.558L0.0347493 6.465C0.0347493 6.465 0.0737492 6.339 0.105249 6.2475C0.490181 5.16823 1.05685 4.16274 1.78075 3.2745C3.12625 1.6335 5.38975 0 8.98225 0C12.5747 0 14.8382 1.6335 16.1852 3.2745C16.9091 4.16274 17.4758 5.16823 17.8607 6.2475C17.893 6.34025 17.923 6.43378 17.9507 6.528L17.9552 6.5475V6.5535L17.9567 6.5565C18.0043 6.7474 17.975 6.94935 17.8751 7.11882C17.7751 7.28829 17.6126 7.41171 17.4225 7.46248C17.2325 7.51324 17.03 7.48729 16.8589 7.39021C16.6878 7.29313 16.5617 7.1327 16.5077 6.9435L16.5062 6.9375L16.4942 6.9L16.4417 6.7365C16.1148 5.82529 15.6355 4.97621 15.0242 4.2255C13.9112 2.868 12.0497 1.5 8.98225 1.5C5.91475 1.5 4.05475 2.868 2.94025 4.2255C2.329 4.97621 1.84969 5.82529 1.52275 6.7365L1.47025 6.9L1.45825 6.9375ZM8.98225 4.5C7.98769 4.5 7.03386 4.89509 6.3306 5.59835C5.62734 6.30161 5.23225 7.25544 5.23225 8.25C5.23225 9.24456 5.62734 10.1984 6.3306 10.9017C7.03386 11.6049 7.98769 12 8.98225 12C9.97681 12 10.9306 11.6049 11.6339 10.9017C12.3372 10.1984 12.7322 9.24456 12.7322 8.25C12.7322 7.25544 12.3372 6.30161 11.6339 5.59835C10.9306 4.89509 9.97681 4.5 8.98225 4.5ZM6.73225 8.25C6.73225 7.65326 6.9693 7.08097 7.39126 6.65901C7.81322 6.23705 8.38551 6 8.98225 6C9.57899 6 10.1513 6.23705 10.5732 6.65901C10.9952 7.08097 11.2322 7.65326 11.2322 8.25C11.2322 8.84674 10.9952 9.41903 10.5732 9.84099C10.1513 10.2629 9.57899 10.5 8.98225 10.5C8.38551 10.5 7.81322 10.2629 7.39126 9.84099C6.9693 9.41903 6.73225 8.84674 6.73225 8.25Z" fill="black" fill-opacity="0.2"/>
</svg>
