<svg width="40" height="40" viewBox="0 0 40 40" fill="none" xmlns="http://www.w3.org/2000/svg">
<rect width="40" height="40" rx="20" fill="#F59E0B" fill-opacity="0.1"/>
<path d="M18.875 12.125C18.2527 12.125 17.75 12.6277 17.75 13.25V13.3309V16.8324C17.75 17.0293 17.5918 17.1875 17.3949 17.1875C17.2684 17.1875 17.1488 17.1207 17.0855 17.0082L15.398 14.0586C12.793 15.3418 11 18.0242 11 21.125V23.375H29V21.0406C28.9684 17.975 27.1824 15.3312 24.602 14.0586L22.9145 17.0082C22.8512 17.1207 22.7316 17.1875 22.6051 17.1875C22.4082 17.1875 22.25 17.0293 22.25 16.8324V13.3309V13.25C22.25 12.6277 21.7473 12.125 21.125 12.125H18.875ZM10.4586 24.5C10.1352 24.5 9.875 24.7602 9.875 25.0836C9.875 25.2488 9.94531 25.407 10.0789 25.502C10.8418 26.0609 13.8055 27.875 20 27.875C26.1945 27.875 29.1582 26.0609 29.9211 25.502C30.0547 25.4035 30.125 25.2488 30.125 25.0836C30.125 24.7602 29.8648 24.5 29.5414 24.5H10.4586Z" fill="#F59E0B"/>
</svg>
