<svg width="48" height="48" viewBox="0 0 48 48" fill="none" xmlns="http://www.w3.org/2000/svg">
<rect width="48" height="48" rx="12" fill="#22C55E"/>
<path d="M30.1289 17.793C28.4922 16.1523 26.3125 15.25 23.9961 15.25C19.2148 15.25 15.3242 19.1406 15.3242 23.9219C15.3242 25.4492 15.7227 26.9414 16.4805 28.2578L15.25 32.75L19.8477 31.543C21.1133 32.2344 22.5391 32.5977 23.9922 32.5977H23.9961C28.7734 32.5977 32.75 28.707 32.75 23.9258C32.75 21.6094 31.7656 19.4336 30.1289 17.793ZM23.9961 31.1367C22.6992 31.1367 21.4297 30.7891 20.3242 30.1328L20.0625 29.9766L17.3359 30.6914L18.0625 28.0312L17.8906 27.7578C17.168 26.6094 16.7891 25.2852 16.7891 23.9219C16.7891 19.9492 20.0234 16.7148 24 16.7148C25.9258 16.7148 27.7344 17.4648 29.0938 18.8281C30.4531 20.1914 31.2891 22 31.2852 23.9258C31.2852 27.9023 27.9688 31.1367 23.9961 31.1367ZM27.9492 25.7383C27.7344 25.6289 26.668 25.1055 26.4688 25.0352C26.2695 24.9609 26.125 24.9258 25.9805 25.1445C25.8359 25.3633 25.4219 25.8477 25.293 25.9961C25.168 26.1406 25.0391 26.1602 24.8242 26.0508C23.5508 25.4141 22.7148 24.9141 21.875 23.4727C21.6523 23.0898 22.0977 23.1172 22.5117 22.2891C22.582 22.1445 22.5469 22.0195 22.4922 21.9102C22.4375 21.8008 22.0039 20.7344 21.8242 20.3008C21.6484 19.8789 21.4688 19.9375 21.3359 19.9297C21.2109 19.9219 21.0664 19.9219 20.9219 19.9219C20.7773 19.9219 20.543 19.9766 20.3438 20.1914C20.1445 20.4102 19.5859 20.9336 19.5859 22C19.5859 23.0664 20.3633 24.0977 20.4688 24.2422C20.5781 24.3867 21.9961 26.5742 24.1719 27.5156C25.5469 28.1094 26.0859 28.1602 26.7734 28.0586C27.1914 27.9961 28.0547 27.5352 28.2344 27.0273C28.4141 26.5195 28.4141 26.0859 28.3594 25.9961C28.3086 25.8984 28.1641 25.8438 27.9492 25.7383Z" fill="white"/>
</svg>
